<mxfile host="app.diagrams.net" agent="Mozilla/5.0 (Windows NT 10.0; Win64; x64) AppleWebKit/537.36 (KHTML, like Gecko) Chrome/139.0.0.0 Safari/537.36" version="28.1.2">
  <diagram name="Page-1" id="CoDmN1xDF0iX2Mcgt9c3">
    <mxGraphModel dx="1050" dy="663" grid="1" gridSize="10" guides="1" tooltips="1" connect="1" arrows="1" fold="1" page="1" pageScale="1" pageWidth="850" pageHeight="1100" math="0" shadow="0">
      <root>
        <mxCell id="0" />
        <mxCell id="1" parent="0" />
        <mxCell id="EZJUQ_Hk_AUpXrAV0Ghc-1" value="" style="rounded=0;whiteSpace=wrap;html=1;strokeWidth=3;fontSize=20;container=0;fontStyle=1" vertex="1" parent="1">
          <mxGeometry x="302" y="150" width="173" height="192" as="geometry" />
        </mxCell>
        <mxCell id="EZJUQ_Hk_AUpXrAV0Ghc-2" value="D" style="text;html=1;align=center;verticalAlign=middle;resizable=0;points=[];autosize=1;strokeColor=none;fillColor=none;strokeWidth=3;fontSize=20;container=0;fontStyle=1" vertex="1" parent="1">
          <mxGeometry x="307" y="166" width="40" height="40" as="geometry" />
        </mxCell>
        <mxCell id="EZJUQ_Hk_AUpXrAV0Ghc-3" value="CLK" style="text;html=1;align=center;verticalAlign=middle;resizable=0;points=[];autosize=1;strokeColor=none;fillColor=none;strokeWidth=3;fontSize=20;container=0;fontStyle=1" vertex="1" parent="1">
          <mxGeometry x="303" y="282" width="60" height="40" as="geometry" />
        </mxCell>
        <mxCell id="EZJUQ_Hk_AUpXrAV0Ghc-4" value="Q" style="text;html=1;align=center;verticalAlign=middle;resizable=0;points=[];autosize=1;strokeColor=none;fillColor=none;strokeWidth=3;fontSize=20;container=0;fontStyle=1" vertex="1" parent="1">
          <mxGeometry x="430" y="166" width="40" height="40" as="geometry" />
        </mxCell>
        <mxCell id="EZJUQ_Hk_AUpXrAV0Ghc-6" value="" style="ellipse;whiteSpace=wrap;html=1;aspect=fixed;strokeWidth=3;" vertex="1" parent="1">
          <mxGeometry x="290" y="296.5" width="11" height="11" as="geometry" />
        </mxCell>
        <mxCell id="EZJUQ_Hk_AUpXrAV0Ghc-7" value="" style="rounded=0;whiteSpace=wrap;html=1;strokeWidth=3;fontSize=20;container=0;fontStyle=1" vertex="1" parent="1">
          <mxGeometry x="50" y="150" width="173" height="192" as="geometry" />
        </mxCell>
        <mxCell id="EZJUQ_Hk_AUpXrAV0Ghc-8" value="D" style="text;html=1;align=center;verticalAlign=middle;resizable=0;points=[];autosize=1;strokeColor=none;fillColor=none;strokeWidth=3;fontSize=20;container=0;fontStyle=1" vertex="1" parent="1">
          <mxGeometry x="55" y="166" width="40" height="40" as="geometry" />
        </mxCell>
        <mxCell id="EZJUQ_Hk_AUpXrAV0Ghc-9" value="CLK" style="text;html=1;align=center;verticalAlign=middle;resizable=0;points=[];autosize=1;strokeColor=none;fillColor=none;strokeWidth=3;fontSize=20;container=0;fontStyle=1" vertex="1" parent="1">
          <mxGeometry x="51" y="282" width="60" height="40" as="geometry" />
        </mxCell>
        <mxCell id="EZJUQ_Hk_AUpXrAV0Ghc-10" value="Q" style="text;html=1;align=center;verticalAlign=middle;resizable=0;points=[];autosize=1;strokeColor=none;fillColor=none;strokeWidth=3;fontSize=20;container=0;fontStyle=1" vertex="1" parent="1">
          <mxGeometry x="178" y="166" width="40" height="40" as="geometry" />
        </mxCell>
      </root>
    </mxGraphModel>
  </diagram>
</mxfile>
